<?xml version="1.0" standalone="no"?>
<!DOCTYPE svg PUBLIC "-//W3C//DTD SVG 20010904//EN"
 "http://www.w3.org/TR/2001/REC-SVG-20010904/DTD/svg10.dtd">
<svg version="1.0" xmlns="http://www.w3.org/2000/svg"
 width="860.000000pt" height="620.000000pt" viewBox="0 0 860.000000 620.000000"
 preserveAspectRatio="xMidYMid meet">

<g transform="translate(0.000000,620.000000) scale(0.100000,-0.100000)"
fill="#000000" stroke="none">
<path d="M4085 5764 c-113 -20 -224 -59 -339 -117 -556 -283 -809 -952 -580
-1530 136 -343 415 -606 761 -717 702 -226 1436 210 1579 936 24 122 24 340 0
454 -106 508 -492 888 -990 975 -110 19 -322 18 -431 -1z"/>
<path d="M1790 5321 c-326 -71 -588 -305 -696 -624 -64 -187 -62 -417 4 -607
68 -195 224 -388 400 -494 94 -56 244 -110 352 -127 98 -15 274 -6 372 20 430
112 730 520 704 956 -24 410 -288 743 -682 861 -121 36 -327 43 -454 15z"/>
<path d="M6440 5325 c-314 -64 -576 -283 -695 -580 -93 -235 -84 -516 25 -744
55 -115 113 -193 213 -287 93 -87 155 -128 277 -181 236 -102 536 -95 764 18
89 45 123 66 199 127 135 109 258 297 308 472 30 107 38 317 14 431 -75 371
-364 665 -729 740 -107 22 -278 24 -376 4z"/>
<path d="M1018 3542 c-117 -94 -270 -262 -359 -394 -188 -281 -297 -595 -329
-949 -47 -502 107 -780 500 -904 187 -58 441 -85 812 -85 l239 0 -8 63 c-13
104 -7 421 12 562 30 234 83 454 156 656 90 250 276 581 433 773 31 38 54 71
52 73 -2 3 -23 -5 -46 -17 -73 -37 -217 -79 -332 -96 -347 -51 -705 63 -975
310 -39 36 -74 66 -76 66 -3 0 -39 -26 -79 -58z"/>
<path d="M7489 3584 c-38 -46 -209 -176 -291 -222 -167 -92 -393 -152 -575
-152 -147 0 -320 36 -457 95 -44 19 -82 33 -84 31 -2 -2 25 -39 60 -83 291
-360 499 -849 573 -1349 26 -177 37 -419 26 -560 -6 -70 -7 -132 -4 -137 9
-15 684 -1 818 17 321 42 501 133 616 309 80 122 113 276 112 512 -3 444 -142
861 -402 1200 -91 119 -337 355 -370 355 -5 0 -15 -7 -22 -16z"/>
<path d="M3069 3465 c-463 -364 -778 -908 -888 -1535 -69 -394 -49 -734 58
-955 79 -165 190 -277 361 -364 196 -100 417 -151 800 -183 222 -18 1886 -18
2055 0 624 69 903 287 991 778 21 119 24 415 5 569 -62 507 -247 956 -548
1330 -93 116 -268 288 -374 368 l-74 56 -65 -63 c-227 -220 -494 -362 -796
-423 -137 -28 -463 -25 -601 5 -283 61 -545 199 -749 395 l-92 87 -83 -65z"/>
</g>
</svg>
