<?xml version="1.0" standalone="no"?>
<!DOCTYPE svg PUBLIC "-//W3C//DTD SVG 20010904//EN"
 "http://www.w3.org/TR/2001/REC-SVG-20010904/DTD/svg10.dtd">
<svg version="1.0" xmlns="http://www.w3.org/2000/svg"
 width="223.000000pt" height="226.000000pt" viewBox="0 0 223.000000 226.000000"
 preserveAspectRatio="xMidYMid meet">

<g transform="translate(0.000000,226.000000) scale(0.100000,-0.100000)"
fill="#000000" stroke="none">
<path d="M843 2249 c-72 -12 -143 -46 -143 -70 0 -14 43 -166 75 -264 4 -11
-19 26 -50 83 l-56 102 -41 -22 c-53 -30 -108 -92 -108 -122 0 -16 37 -69 111
-158 61 -73 116 -139 123 -146 11 -11 23 -10 71 4 39 11 77 15 111 11 52 -5
54 -4 89 34 39 44 41 43 20 -8 -8 -20 -13 -38 -11 -40 2 -3 22 -7 43 -10 l38
-5 118 138 c120 142 134 165 123 209 -6 25 -72 105 -86 105 -4 0 -26 -27 -49
-60 -63 -90 -63 -85 3 69 41 96 40 102 -32 125 -99 33 -242 43 -349 25z"/>
<path d="M769 1505 c-39 -52 -73 -95 -75 -95 -5 0 74 148 89 168 29 38 -87
-26 -179 -99 -221 -175 -430 -447 -524 -682 -52 -131 -71 -220 -71 -337 2
-313 124 -417 526 -450 182 -14 169 -16 148 23 -15 28 -18 65 -20 282 -2 243
-1 251 22 302 65 143 256 232 475 220 52 -3 116 -12 143 -20 l47 -15 0 57 c0
92 66 204 146 249 16 9 14 16 -27 68 -158 205 -358 387 -451 410 -34 8 -34 9
-8 -101 11 -47 20 -89 19 -93 0 -4 -25 41 -55 101 l-54 107 -40 0 c-38 0 -42
-3 -111 -95z"/>
<path d="M1755 1016 c-79 -19 -125 -39 -165 -73 -82 -69 -67 -159 37 -215 142
-78 363 -78 505 -1 71 39 92 73 89 142 -2 42 -80 107 -158 131 -87 27 -228 35
-308 16z m327 -58 c31 -14 64 -38 74 -53 16 -25 16 -27 -3 -53 -11 -15 -46
-38 -79 -52 -53 -22 -73 -24 -194 -24 -121 0 -141 2 -194 24 -33 14 -68 37
-79 52 -19 25 -19 28 -3 52 18 29 76 61 133 76 21 5 94 8 163 7 111 -3 132 -6
182 -29z"/>
<path d="M1770 923 c0 -11 9 -28 20 -38 11 -10 22 -26 25 -36 4 -11 15 -19 26
-19 23 0 24 9 2 39 l-16 24 86 -7 c82 -7 87 -6 87 13 0 21 -17 25 -152 37 -73
6 -78 5 -78 -13z"/>
<path d="M1540 625 c0 -39 5 -50 39 -84 22 -22 65 -49 97 -62 52 -20 76 -23
199 -24 153 0 220 16 291 70 42 32 56 58 56 102 0 46 -5 49 -35 19 -82 -81
-299 -120 -452 -81 -68 18 -153 62 -169 87 -18 29 -26 21 -26 -27z"/>
<path d="M1007 639 c-142 -33 -200 -131 -122 -204 54 -51 121 -70 250 -70 105
0 114 2 178 33 105 52 125 119 55 183 -61 58 -241 86 -361 58z m296 -48 c90
-44 68 -103 -50 -137 -83 -24 -236 -16 -299 17 -85 44 -75 94 26 130 81 29
255 23 323 -10z"/>
<path d="M1040 572 c0 -21 42 -82 56 -82 17 0 17 5 3 32 -11 21 -10 21 60 14
67 -6 71 -5 71 14 0 16 -7 20 -34 20 -18 0 -61 3 -95 6 -41 5 -61 3 -61 -4z"/>
<path d="M1540 415 c0 -81 87 -149 225 -174 237 -44 483 59 458 191 l-5 26
-44 -33 c-69 -53 -145 -77 -259 -82 -148 -7 -267 25 -338 91 -15 14 -30 26
-33 26 -2 0 -4 -20 -4 -45z"/>
<path d="M850 329 c0 -42 19 -70 65 -99 138 -85 426 -55 480 51 30 58 13 95
-25 54 -44 -47 -123 -69 -245 -70 -100 0 -115 3 -170 28 -33 16 -70 38 -82 49
l-23 21 0 -34z"/>
<path d="M1540 193 c0 -42 4 -51 45 -89 64 -62 155 -89 295 -89 210 1 364 89
343 197 l-5 28 -30 -26 c-149 -125 -491 -125 -607 0 -14 14 -28 26 -33 26 -4
0 -8 -21 -8 -47z"/>
<path d="M850 151 c0 -70 72 -120 204 -141 164 -26 356 46 356 133 0 39 -14
49 -34 26 -57 -67 -243 -99 -372 -64 -38 10 -85 32 -110 51 l-44 34 0 -39z"/>
</g>
</svg>
