<?xml version="1.0" standalone="no"?>
<!DOCTYPE svg PUBLIC "-//W3C//DTD SVG 20010904//EN"
 "http://www.w3.org/TR/2001/REC-SVG-20010904/DTD/svg10.dtd">
<svg version="1.0" xmlns="http://www.w3.org/2000/svg"
 width="129.000000pt" height="129.000000pt" viewBox="0 0 129.000000 129.000000"
 preserveAspectRatio="xMidYMid meet">

<g transform="translate(0.000000,129.000000) scale(0.100000,-0.100000)"
fill="#000000" stroke="none">
<path d="M531 1279 c-232 -41 -436 -228 -507 -465 -25 -81 -25 -257 0 -338 66
-220 232 -386 451 -452 81 -25 257 -25 340 0 212 63 388 239 451 451 24 82 24
258 0 340 -62 210 -240 389 -445 449 -68 20 -219 28 -290 15z m225 -60 c101
-18 219 -82 300 -163 231 -231 231 -591 0 -822 -231 -231 -591 -231 -822 0
-231 231 -231 591 0 822 140 140 327 198 522 163z"/>
<path d="M472 773 c-12 -75 -20 -138 -18 -140 2 -2 28 -8 57 -12 46 -8 59 -6
85 10 17 10 40 19 52 19 82 0 97 -164 16 -184 -31 -8 -71 15 -84 48 -6 17 -15
23 -32 20 -13 -2 -44 -6 -70 -9 -46 -6 -46 -6 -37 -34 13 -37 66 -86 108 -100
79 -26 205 -8 254 37 54 49 73 155 39 221 -34 68 -113 100 -198 81 -26 -6 -48
-9 -49 -8 -2 2 0 17 2 35 l5 32 117 3 116 3 3 58 3 57 -173 0 -174 0 -22 -137z"/>
</g>
</svg>
