<?xml version="1.0" standalone="no"?>
<!DOCTYPE svg PUBLIC "-//W3C//DTD SVG 20010904//EN"
 "http://www.w3.org/TR/2001/REC-SVG-20010904/DTD/svg10.dtd">
<svg version="1.0" xmlns="http://www.w3.org/2000/svg"
 width="129.000000pt" height="129.000000pt" viewBox="0 0 129.000000 129.000000"
 preserveAspectRatio="xMidYMid meet">

<g transform="translate(0.000000,129.000000) scale(0.100000,-0.100000)"
fill="#000000" stroke="none">
<path d="M533 1280 c-237 -43 -438 -226 -509 -465 -25 -82 -25 -258 0 -339 66
-221 232 -386 451 -452 82 -25 258 -25 340 0 213 64 387 238 451 451 25 82 25
258 0 340 -63 211 -239 388 -446 449 -67 20 -217 28 -287 16z m223 -61 c101
-18 219 -82 300 -163 231 -231 231 -591 0 -822 -231 -231 -591 -231 -822 0
-231 231 -231 591 0 822 140 140 327 198 522 163z"/>
<path d="M552 754 l-132 -156 0 -59 0 -59 130 0 130 0 0 -50 0 -50 65 0 65 0
0 50 c0 49 1 50 30 50 30 0 30 0 30 56 l0 56 -30 -4 -30 -5 0 164 0 163 -63 0
-64 0 -131 -156z m128 -83 l0 -79 -65 -4 c-36 -1 -65 0 -65 5 0 7 121 156 128
157 1 0 2 -36 2 -79z"/>
</g>
</svg>
