<?xml version="1.0" standalone="no"?>
<!DOCTYPE svg PUBLIC "-//W3C//DTD SVG 20010904//EN"
 "http://www.w3.org/TR/2001/REC-SVG-20010904/DTD/svg10.dtd">
<svg version="1.0" xmlns="http://www.w3.org/2000/svg"
 width="130.000000pt" height="130.000000pt" viewBox="0 0 130.000000 130.000000"
 preserveAspectRatio="xMidYMid meet">

<g transform="translate(0.000000,130.000000) scale(0.100000,-0.100000)"
fill="#000000" stroke="none">
<path d="M575 1294 c-11 -2 -45 -9 -75 -15 -169 -33 -350 -177 -428 -340 -22
-46 -46 -109 -53 -139 -17 -71 -17 -229 0 -300 43 -180 180 -351 342 -428 110
-53 173 -67 294 -66 181 0 319 58 451 189 66 65 89 98 122 166 52 109 66 172
66 289 0 117 -14 180 -66 289 -75 157 -239 293 -407 336 -64 16 -209 28 -246
19z m264 -80 c187 -63 328 -212 387 -409 29 -95 24 -239 -10 -340 -66 -192
-213 -332 -411 -391 -94 -28 -240 -24 -338 10 -187 64 -319 195 -383 381 -39
114 -39 256 0 368 46 136 122 237 235 311 159 105 342 130 520 70z"/>
<path d="M540 1141 c-5 -11 -10 -38 -10 -61 0 -36 -4 -42 -34 -57 -34 -16 -34
-15 -62 15 -52 55 -67 53 -146 -26 -79 -79 -81 -94 -26 -146 30 -28 31 -28 15
-62 -15 -30 -21 -34 -57 -34 -75 0 -80 -7 -80 -120 0 -113 5 -120 80 -120 36
0 42 -4 56 -34 16 -33 16 -34 -13 -62 -56 -53 -53 -67 25 -146 79 -79 94 -81
146 -26 28 30 28 31 62 15 30 -15 34 -21 34 -57 0 -75 7 -80 120 -80 113 0
120 5 120 80 0 36 4 42 34 57 34 16 34 15 62 -15 52 -55 67 -53 146 26 78 79
80 91 25 144 -29 30 -30 30 -14 64 15 30 21 34 57 34 75 0 80 7 80 120 0 113
-5 120 -80 120 -36 0 -42 4 -57 34 -16 34 -15 34 15 62 55 52 53 67 -26 146
-79 79 -94 81 -146 26 -28 -30 -28 -31 -62 -15 -30 15 -34 21 -34 57 0 75 -7
80 -120 80 -88 0 -100 -2 -110 -19z m182 -87 l3 -55 63 -26 64 -25 39 38 39
38 47 -47 47 -47 -38 -39 -38 -39 25 -64 26 -63 55 -3 56 -3 0 -69 0 -69 -56
-3 -55 -3 -26 -63 -25 -64 38 -39 38 -39 -47 -47 -47 -47 -39 38 -39 38 -64
-25 -63 -26 -3 -55 -3 -56 -69 0 -69 0 -3 56 -3 55 -63 26 -64 25 -39 -38 -39
-38 -47 47 -47 47 38 39 38 39 -25 64 -26 63 -55 3 -56 3 0 69 0 69 56 3 55 3
26 63 25 64 -38 39 -38 39 47 47 47 47 39 -38 39 -38 64 25 63 26 3 55 3 56
69 0 69 0 3 -56z"/>
<path d="M443 866 l-58 -53 60 -57 c33 -30 62 -56 65 -56 3 0 11 9 18 21 12
18 11 23 -7 36 -41 28 -24 35 77 31 117 -4 150 -22 178 -93 13 -36 22 -45 40
-45 29 0 31 20 5 75 -39 85 -99 115 -232 115 l-92 0 23 25 c19 20 21 27 10 40
-7 8 -16 15 -21 15 -4 0 -34 -24 -66 -54z"/>
<path d="M460 635 c0 -25 29 -88 53 -114 41 -44 94 -61 196 -61 l94 0 -23 -25
c-22 -23 -23 -27 -8 -42 15 -15 20 -13 55 15 21 16 49 42 62 56 l24 25 -59 55
c-33 31 -61 56 -64 56 -3 0 -11 -9 -18 -21 -12 -18 -11 -23 7 -36 12 -8 21
-18 21 -24 0 -10 -131 -12 -180 -3 -41 9 -95 62 -103 103 -5 25 -11 31 -32 31
-16 0 -25 -6 -25 -15z"/>
</g>
</svg>
