<?xml version="1.0" standalone="no"?>
<!DOCTYPE svg PUBLIC "-//W3C//DTD SVG 20010904//EN"
 "http://www.w3.org/TR/2001/REC-SVG-20010904/DTD/svg10.dtd">
<svg version="1.0" xmlns="http://www.w3.org/2000/svg"
 width="860.000000pt" height="782.000000pt" viewBox="0 0 860.000000 782.000000"
 preserveAspectRatio="xMidYMid meet">

<g transform="translate(0.000000,782.000000) scale(0.100000,-0.100000)"
fill="#000000" stroke="none">
<path d="M7995 7394 c-33 -7 -204 -45 -380 -83 -879 -191 -1256 -280 -1294
-308 -34 -26 -37 -55 -10 -101 13 -20 120 -135 238 -255 l215 -218 -1274
-1274 -1274 -1274 -316 312 c-174 172 -362 354 -418 405 -119 108 -137 113
-217 58 -104 -70 -336 -296 -1632 -1590 l-1333 -1330 0 -65 c0 -88 13 -108
178 -270 156 -154 242 -221 281 -221 76 0 174 93 1444 1359 l1118 1115 262
-260 c562 -557 549 -547 653 -548 l41 -1 1489 1485 c819 817 1504 1496 1521
1508 l33 23 197 -189 c230 -220 250 -238 295 -256 42 -17 72 -7 93 34 51 99
402 1736 392 1829 -13 115 -122 157 -302 115z"/>
<path d="M6713 4728 l-593 -593 0 -1745 1 -1745 49 -55 49 -55 493 0 c463 0
495 1 531 19 77 38 71 -110 74 1706 2 894 0 1948 -4 2343 l-8 717 -592 -592z"/>
<path d="M5152 3168 l-593 -591 3 -966 c3 -911 4 -968 21 -999 36 -67 37 -67
579 -70 485 -3 488 -3 516 18 16 12 39 39 51 60 21 37 21 48 26 651 3 338 2
1036 -2 1551 l-8 937 -593 -591z"/>
<path d="M3117 2988 l-139 -142 5 -1081 c3 -779 7 -1090 16 -1116 6 -20 22
-48 35 -62 46 -49 76 -52 556 -52 478 0 505 3 550 50 22 24 25 38 31 153 4 70
8 490 8 933 l1 806 -83 10 c-160 19 -218 61 -582 412 -131 127 -243 231 -249
231 -6 0 -73 -64 -149 -142z"/>
<path d="M2007 1882 l-587 -587 0 -326 0 -327 46 -51 46 -51 505 0 504 0 49
52 49 53 1 836 c0 780 -4 989 -19 989 -3 0 -270 -264 -594 -588z"/>
</g>
</svg>
