<?xml version="1.0" standalone="no"?>
<!DOCTYPE svg PUBLIC "-//W3C//DTD SVG 20010904//EN"
 "http://www.w3.org/TR/2001/REC-SVG-20010904/DTD/svg10.dtd">
<svg version="1.0" xmlns="http://www.w3.org/2000/svg"
 width="129.000000pt" height="129.000000pt" viewBox="0 0 129.000000 129.000000"
 preserveAspectRatio="xMidYMid meet">

<g transform="translate(0.000000,129.000000) scale(0.100000,-0.100000)"
fill="#000000" stroke="none">
<path d="M531 1279 c-232 -41 -436 -228 -507 -465 -25 -81 -25 -257 0 -338 66
-221 232 -386 451 -452 81 -25 257 -25 340 0 212 63 388 239 451 451 24 82 24
258 0 340 -62 210 -240 389 -445 449 -68 20 -219 28 -290 15z m225 -60 c101
-18 219 -82 300 -163 231 -231 231 -591 0 -822 -231 -231 -591 -231 -822 0
-231 231 -231 591 0 822 140 140 327 198 522 163z"/>
<path d="M670 900 c0 -22 -71 -87 -119 -110 l-51 -23 0 -54 c0 -63 4 -65 86
-23 32 16 60 30 62 30 1 0 2 -76 2 -170 l0 -170 70 0 70 0 0 265 0 265 -60 0
c-33 0 -60 -4 -60 -10z"/>
</g>
</svg>
