<?xml version="1.0" standalone="no"?>
<!DOCTYPE svg PUBLIC "-//W3C//DTD SVG 20010904//EN"
 "http://www.w3.org/TR/2001/REC-SVG-20010904/DTD/svg10.dtd">
<svg version="1.0" xmlns="http://www.w3.org/2000/svg"
 width="123.000000pt" height="123.000000pt" viewBox="0 0 123.000000 123.000000"
 preserveAspectRatio="xMidYMid meet">

<g transform="translate(0.000000,123.000000) scale(0.100000,-0.100000)"
fill="#000000" stroke="none">
<path d="M485 1214 c-120 -26 -209 -76 -301 -168 -96 -96 -143 -184 -170 -315
-29 -147 -1 -307 78 -438 49 -81 159 -181 248 -225 247 -122 533 -70 721 130
70 73 128 178 150 272 7 30 13 96 13 145 0 177 -53 305 -178 431 -119 119
-232 169 -406 179 -57 3 -108 0 -155 -11z m270 -59 c92 -24 174 -73 250 -150
114 -113 165 -234 165 -388 0 -156 -52 -279 -165 -393 -111 -113 -233 -164
-390 -164 -156 0 -279 51 -391 164 -113 112 -164 235 -164 391 0 156 51 279
164 391 75 75 156 124 249 149 70 18 209 19 282 0z"/>
<path d="M496 837 c-44 -25 -84 -87 -63 -98 6 -4 35 -10 62 -13 48 -7 51 -6
67 24 23 40 73 43 90 4 15 -32 3 -54 -40 -74 -20 -9 -32 -23 -32 -35 0 -11 -3
-30 -6 -42 -6 -20 -3 -22 29 -16 46 7 77 -22 77 -72 0 -84 -100 -103 -125 -24
-6 19 -12 21 -52 15 -25 -3 -54 -6 -64 -6 -57 0 24 -112 95 -131 56 -15 165
-6 205 17 77 45 101 157 46 214 -16 16 -35 30 -42 30 -18 0 -17 4 17 40 55 58
32 143 -46 176 -54 23 -172 18 -218 -9z"/>
</g>
</svg>
