<?xml version="1.0" standalone="no"?>
<!DOCTYPE svg PUBLIC "-//W3C//DTD SVG 20010904//EN"
 "http://www.w3.org/TR/2001/REC-SVG-20010904/DTD/svg10.dtd">
<svg version="1.0" xmlns="http://www.w3.org/2000/svg"
 width="500.000000pt" height="500.000000pt" viewBox="0 0 500.000000 500.000000"
 preserveAspectRatio="xMidYMid meet">

<g transform="translate(0.000000,500.000000) scale(0.100000,-0.100000)"
fill="#000000" stroke="none">
<path d="M2186 4985 c-153 -22 -261 -45 -386 -82 -335 -101 -578 -222 -801
-401 -60 -48 -124 -97 -142 -110 -44 -31 -215 -200 -241 -238 -11 -17 -59 -78
-105 -135 -181 -225 -265 -384 -382 -724 -50 -147 -77 -253 -106 -420 -25
-147 -25 -596 0 -750 32 -196 79 -357 180 -627 57 -154 179 -357 313 -522 43
-54 87 -110 96 -125 25 -37 175 -188 224 -225 23 -17 86 -67 140 -110 166
-134 368 -255 522 -313 408 -154 589 -192 947 -200 306 -7 484 15 750 93 332
98 580 221 806 402 60 48 126 100 147 115 54 40 189 174 231 229 20 26 75 96
123 157 181 226 305 474 402 806 78 266 100 444 93 750 -8 358 -46 539 -200
947 -58 154 -179 356 -313 522 -43 54 -93 117 -110 140 -37 49 -188 199 -225
224 -15 9 -71 53 -125 96 -165 134 -368 256 -522 313 -426 160 -589 193 -967
199 -178 2 -279 -1 -349 -11z m609 -344 c158 -23 263 -49 415 -103 129 -45
330 -136 330 -149 0 -5 7 -9 16 -9 23 0 119 -60 233 -145 113 -84 347 -314
430 -424 77 -101 151 -216 151 -235 0 -8 7 -22 16 -30 43 -43 169 -359 214
-536 79 -312 80 -703 1 -1018 -42 -171 -172 -495 -215 -538 -9 -8 -16 -22 -16
-30 0 -19 -74 -134 -151 -235 -76 -100 -308 -332 -408 -408 -101 -77 -216
-151 -235 -151 -8 0 -22 -7 -30 -16 -43 -43 -367 -173 -538 -215 -315 -79
-706 -78 -1018 1 -177 45 -493 171 -536 214 -8 9 -22 16 -30 16 -19 0 -134 74
-235 151 -110 83 -340 317 -424 430 -85 114 -145 210 -145 233 0 9 -4 16 -9
16 -25 0 -167 357 -211 530 -79 312 -80 703 -1 1018 41 167 187 532 212 532 5
0 9 7 9 16 0 54 185 298 356 468 170 171 414 356 468 356 9 0 16 4 16 9 0 25
365 171 532 212 241 60 558 76 803 40z"/>
<path d="M1479 3860 c-73 -22 -119 -85 -119 -165 0 -53 18 -93 67 -150 19 -22
97 -119 175 -215 77 -96 147 -182 157 -190 26 -24 111 -127 111 -134 0 -8 203
-259 235 -291 34 -33 175 -207 175 -215 0 -8 -141 -182 -175 -215 -36 -36
-235 -283 -235 -292 0 -5 -28 -40 -63 -78 -35 -39 -127 -149 -205 -245 -77
-96 -156 -193 -175 -215 -49 -57 -67 -97 -67 -150 0 -63 23 -107 72 -142 l41
-28 1015 -3 c1014 -2 1015 -2 1058 19 24 11 54 35 66 52 22 31 23 42 26 257 3
222 3 226 -20 260 -54 80 -135 101 -218 57 -68 -36 -90 -86 -90 -209 l0 -98
-716 0 c-572 0 -715 3 -707 13 45 59 299 366 345 416 32 35 58 68 58 73 0 10
218 278 263 323 16 17 48 54 71 84 38 51 41 59 41 121 0 62 -3 70 -41 121 -23
30 -55 68 -71 84 -45 45 -263 313 -263 323 0 5 -26 38 -58 73 -46 50 -300 357
-345 417 -8 9 135 12 707 12 l716 0 0 -98 c0 -123 22 -173 90 -209 83 -44 164
-23 218 57 23 34 23 38 20 260 -3 215 -4 226 -26 257 -12 17 -42 41 -65 52
-43 21 -49 21 -1043 20 -549 0 -1011 -4 -1025 -9z"/>
</g>
</svg>
