<?xml version="1.0" standalone="no"?>
<!DOCTYPE svg PUBLIC "-//W3C//DTD SVG 20010904//EN"
 "http://www.w3.org/TR/2001/REC-SVG-20010904/DTD/svg10.dtd">
<svg version="1.0" xmlns="http://www.w3.org/2000/svg"
 width="122.000000pt" height="122.000000pt" viewBox="0 0 122.000000 122.000000"
 preserveAspectRatio="xMidYMid meet">

<g transform="translate(0.000000,122.000000) scale(0.100000,-0.100000)"
fill="#000000" stroke="none">
<path d="M503 1210 c-220 -40 -407 -207 -476 -425 -16 -53 -21 -95 -21 -175 0
-80 5 -122 21 -175 61 -193 215 -347 408 -408 98 -30 252 -30 350 0 192 61
347 216 408 408 30 98 30 252 0 350 -60 191 -215 347 -402 406 -75 23 -214 32
-288 19z m263 -71 c86 -27 105 -36 183 -95 229 -172 280 -511 112 -751 -108
-153 -263 -233 -453 -233 -241 0 -452 155 -524 386 -23 74 -26 96 -22 186 6
124 28 194 95 292 72 105 187 187 310 221 78 21 220 18 299 -6z"/>
<path d="M530 851 c-46 -15 -71 -35 -91 -73 -34 -66 -28 -77 44 -80 60 -3 63
-2 77 26 8 16 22 34 31 39 22 14 66 1 80 -24 19 -36 -7 -74 -107 -154 -94 -76
-138 -132 -150 -193 l-6 -32 201 0 201 0 0 55 0 54 -106 3 -107 3 64 47 c79
58 124 104 138 141 26 68 0 141 -61 173 -37 19 -167 29 -208 15z"/>
</g>
</svg>
